<svg width="185" height="163" viewBox="0 0 185 163" fill="none" xmlns="http://www.w3.org/2000/svg">
<g clip-path="url(#clip0_325_207)">
<path d="M124.946 0.44116C110.815 3.91511 96.6303 7.4442 82.989 12.5173C69.3477 17.5903 56.2499 23.8214 50.8694 37.9929C45.9781 50.7307 49.9455 65.3434 61.9021 72.2913C67.8803 75.7652 74.7281 76.1512 81.3042 77.6952C87.8803 79.2392 94.4021 81.4449 100.543 84.5328V60.7115C78.6412 72.4016 56.6303 84.1468 36.2499 98.4838C26.0325 105.652 14.3477 113.372 6.46728 123.243C-2.50011 134.436 -2.98924 151.2 10.8151 158.809C21.6847 164.765 37.6629 162.669 49.6194 162.779C63.3694 162.89 77.1194 162.614 90.8151 161.952C119.076 160.629 147.174 157.651 175.109 153.46C182.391 152.358 186.359 143.039 184.619 136.477C182.5 128.591 175.217 125.724 167.88 126.827C123.043 133.609 77.6086 136.201 32.2825 134.822C30.0542 134.767 26.8477 133.995 24.7281 134.547C24.3477 134.657 24.0216 134.657 23.7499 134.436C22.4455 136.697 23.3694 139.123 26.576 141.715C27.4999 141.329 29.1847 138.682 29.9999 137.855C31.739 136.201 33.6412 134.657 35.489 133.168C43.2064 126.717 51.4673 120.982 59.8912 115.468C77.3912 104.108 95.8151 94.2378 114.239 84.4225C122.935 79.7906 123.261 65.1228 114.239 60.6012C104.511 55.7487 94.4564 52.0541 83.8042 50.069C82.4999 49.8485 75.9781 49.4073 75.2716 48.2493C75.9781 49.3522 76.2499 47.0362 76.6847 46.6502C82.5542 40.2537 92.9347 37.8826 100.815 35.4012C111.141 32.1479 121.685 29.5562 132.174 26.9645C149.185 22.7737 141.956 -3.80478 124.946 0.386018V0.44116Z" fill="#E94734"/>
</g>
<defs>
<clipPath id="clip0_325_207">
<rect width="185" height="163" fill="white"/>
</clipPath>
</defs>
</svg>
