<svg width="265" height="80" viewBox="0 0 265 80" fill="none" xmlns="http://www.w3.org/2000/svg">
<g clip-path="url(#clip0_458_245)">
<path d="M55.3813 0.194879C49.1181 1.72939 42.8308 3.28825 36.7844 5.52912C30.738 7.76998 24.9325 10.5223 22.5476 16.7822C20.3796 22.4087 22.1381 28.8633 27.4377 31.9324C30.0876 33.4669 33.1228 33.6374 36.0376 34.3194C38.9524 35.0014 41.8431 35.9757 44.5652 37.3397V26.8173C34.8572 31.9811 25.1011 37.1692 16.0676 43.5021C11.5388 46.6685 6.3596 50.0785 2.86665 54.4385C-1.10808 59.383 -1.32489 66.7876 4.7938 70.1489C9.61166 72.7795 16.6939 71.8539 21.9936 71.9026C28.0882 71.9513 34.1827 71.8295 40.2533 71.5372C52.7797 70.9527 65.2339 69.6374 77.6158 67.7862C80.8437 67.2991 82.6023 63.1827 81.8314 60.2842C80.8919 56.8011 77.6639 55.5345 74.4119 56.0217C54.5382 59.0176 34.3996 60.1624 14.3091 59.5535C13.3214 59.5291 11.9001 59.1881 10.9607 59.4317C10.792 59.4804 10.6475 59.4804 10.5271 59.383C9.94891 60.3816 10.3584 61.4533 11.7797 62.5981C12.1892 62.4276 12.936 61.2585 13.2973 60.8931C14.0682 60.1624 14.9113 59.4804 15.7303 58.8228C19.151 55.973 22.8126 53.4398 26.5464 51.0041C34.3032 45.9865 42.4695 41.6265 50.6357 37.291C54.49 35.2449 54.6346 28.7659 50.6357 26.7686C46.3238 24.6252 41.8672 22.9933 37.1457 22.1164C36.5676 22.019 33.6769 21.8241 33.3637 21.3126C33.6769 21.7998 33.7973 20.7767 33.99 20.6062C36.5917 17.7808 41.1927 16.7334 44.6857 15.6374C49.2626 14.2003 53.936 13.0555 58.5852 11.9107C66.1252 10.0596 62.9213 -1.68063 55.3813 0.170522V0.194879Z" fill="#E94734"/>
</g>
<path d="M112.2 50.16C115.133 50.48 117.48 51 119.24 51.72C121.027 52.44 122.32 53.3867 123.12 54.56C123.92 55.7333 124.32 57.2 124.32 58.96C124.32 60.88 123.693 62.56 122.44 64C121.213 65.4133 119.507 66.5067 117.32 67.28C115.133 68.0267 112.64 68.4 109.84 68.4C106.72 68.4 104.08 68.0133 101.92 67.24C99.76 66.4667 98.1467 65.44 97.08 64.16C96.0133 62.8533 95.48 61.4267 95.48 59.88C95.48 59.6133 95.56 59.4 95.72 59.24C95.9067 59.08 96.1333 59 96.4 59H104.6C105.16 59 105.613 59.1733 105.96 59.52C106.413 59.9467 106.92 60.24 107.48 60.4C108.04 60.5333 108.827 60.6 109.84 60.6C112.373 60.6 113.64 60.2133 113.64 59.44C113.64 59.12 113.467 58.8533 113.12 58.64C112.8 58.4 112.213 58.2 111.36 58.04C110.533 57.8533 109.307 57.6667 107.68 57.48C104.027 57.0533 101.227 56.1467 99.28 54.76C97.3333 53.3467 96.36 51.36 96.36 48.8C96.36 46.9867 96.9067 45.3867 98 44C99.0933 42.6133 100.64 41.5333 102.64 40.76C104.667 39.9867 107.013 39.6 109.68 39.6C112.453 39.6 114.88 40.04 116.96 40.92C119.04 41.7733 120.627 42.84 121.72 44.12C122.813 45.4 123.36 46.6533 123.36 47.88C123.36 48.1467 123.267 48.36 123.08 48.52C122.92 48.68 122.693 48.76 122.4 48.76H113.8C113.347 48.76 112.933 48.6 112.56 48.28C112.267 48.0133 111.92 47.8 111.52 47.64C111.12 47.48 110.507 47.4 109.68 47.4C107.893 47.4 107 47.7733 107 48.52C107 48.92 107.347 49.24 108.04 49.48C108.733 49.6933 110.12 49.92 112.2 50.16ZM140.704 57.2C140.704 58.2933 141.064 59.1333 141.784 59.72C142.531 60.3067 143.531 60.6 144.784 60.6C145.904 60.6 146.731 60.4133 147.264 60.04C147.798 59.6667 148.251 59.1067 148.624 58.36C148.971 57.6667 149.438 57.32 150.024 57.32H158.664C158.904 57.32 159.104 57.4133 159.264 57.6C159.451 57.76 159.544 57.96 159.544 58.2C159.544 59.8267 158.998 61.4267 157.904 63C156.811 64.5467 155.144 65.84 152.904 66.88C150.691 67.8933 147.984 68.4 144.784 68.4C141.931 68.4 139.384 67.9733 137.144 67.12C134.931 66.24 133.171 64.9067 131.864 63.12C130.558 61.3067 129.904 59.0533 129.904 56.36V51.64C129.904 48.9467 130.558 46.7067 131.864 44.92C133.171 43.1067 134.931 41.7733 137.144 40.92C139.384 40.04 141.931 39.6 144.784 39.6C147.984 39.6 150.691 40.12 152.904 41.16C155.144 42.1733 156.811 43.4667 157.904 45.04C158.998 46.5867 159.544 48.1733 159.544 49.8C159.544 50.04 159.451 50.2533 159.264 50.44C159.104 50.6 158.904 50.68 158.664 50.68H150.024C149.438 50.68 148.971 50.3333 148.624 49.64C148.251 48.8933 147.798 48.3333 147.264 47.96C146.731 47.5867 145.904 47.4 144.784 47.4C143.531 47.4 142.531 47.6933 141.784 48.28C141.064 48.8667 140.704 49.7067 140.704 50.8V57.2ZM173.009 66.64C172.662 67.5467 172.062 68 171.209 68H163.649C163.409 68 163.195 67.92 163.009 67.76C162.849 67.5733 162.769 67.36 162.769 67.12L162.809 66.88L171.529 41.32C171.635 40.9733 171.835 40.6667 172.129 40.4C172.422 40.1333 172.822 40 173.329 40H184.449C184.955 40 185.355 40.1333 185.649 40.4C185.942 40.6667 186.142 40.9733 186.249 41.32L194.969 66.88L195.009 67.12C195.009 67.36 194.915 67.5733 194.729 67.76C194.569 67.92 194.369 68 194.129 68H186.569C185.715 68 185.115 67.5467 184.769 66.64L183.769 63.84H174.009L173.009 66.64ZM178.889 47.72L176.049 56.04H181.729L178.889 47.72ZM217.233 40C219.74 40 221.926 40.4267 223.793 41.28C225.66 42.1333 227.086 43.2933 228.073 44.76C229.06 46.2267 229.553 47.8667 229.553 49.68C229.553 52.6667 228.62 55.0133 226.753 56.72C224.886 58.4 221.713 59.24 217.233 59.24H211.953V66.92C211.953 67.2133 211.846 67.4667 211.633 67.68C211.42 67.8933 211.166 68 210.873 68H202.273C201.98 68 201.726 67.8933 201.513 67.68C201.3 67.4667 201.193 67.2133 201.193 66.92V41.08C201.193 40.7867 201.3 40.5333 201.513 40.32C201.726 40.1067 201.98 40 202.273 40H217.233ZM217.073 51.84C217.713 51.84 218.22 51.6533 218.593 51.28C218.966 50.88 219.153 50.36 219.153 49.72C219.153 49.0533 218.966 48.5067 218.593 48.08C218.22 47.6533 217.713 47.44 217.073 47.44H211.993V51.84H217.073ZM260.498 60.2C260.791 60.2 261.044 60.3067 261.258 60.52C261.471 60.7333 261.578 60.9867 261.578 61.28V66.92C261.578 67.2133 261.471 67.4667 261.258 67.68C261.044 67.8933 260.791 68 260.498 68H235.218C234.924 68 234.671 67.8933 234.458 67.68C234.244 67.4667 234.138 67.2133 234.138 66.92V41.08C234.138 40.7867 234.244 40.5333 234.458 40.32C234.671 40.1067 234.924 40 235.218 40H260.098C260.391 40 260.644 40.1067 260.858 40.32C261.071 40.5333 261.178 40.7867 261.178 41.08V46.72C261.178 47.0133 261.071 47.2667 260.858 47.48C260.644 47.6933 260.391 47.8 260.098 47.8H244.538V50.32H257.898C258.191 50.32 258.444 50.4267 258.658 50.64C258.871 50.8533 258.978 51.1067 258.978 51.4V56.6C258.978 56.8933 258.871 57.1467 258.658 57.36C258.444 57.5733 258.191 57.68 257.898 57.68H244.538V60.2H260.498Z" fill="black"/>
<defs>
<clipPath id="clip0_458_245">
<rect width="82" height="72" fill="white"/>
</clipPath>
</defs>
</svg>
