<svg width="287" height="269" viewBox="0 0 287 269" fill="none" xmlns="http://www.w3.org/2000/svg">
<g clip-path="url(#clip0_107_10)">
<path d="M92.2717 44.1579C92.7696 42.2277 100.499 14.3468 125.711 5.64391C129.355 4.39096 142.119 -0.0225751 155.008 5.64391C171.417 12.8568 179.044 32.4299 178.976 46.8219C178.931 56.6423 175.321 58.6854 176.758 67.8172C178.059 76.0573 182.371 83.1912 192.295 93.3164C207.266 108.589 213.603 108.848 232.241 123.873C242.867 132.429 250.426 140.646 265.533 157.081C282.383 175.401 284.307 179.95 284.171 184.973C283.831 197.988 269.777 211.963 257.544 211.534C245.866 211.127 242.527 197.83 225.587 195.595C221.208 195.02 213.434 193.992 209.609 198.248C201.959 206.759 220.721 224.537 214.939 239.426C210.729 250.262 194.321 253.445 161.674 259.349C121.264 266.663 100.883 270.106 92.4301 259.349C82.4153 246.616 94.7047 225.993 84.4409 219.503C76.746 214.638 62.7479 222.043 57.0785 225.045C43.4086 232.292 42.6957 239.279 33.8917 240.893C23.198 242.857 9.15463 235.317 4.54896 224.819C-2.27467 209.276 12.5155 189.522 29.8519 166.371C47.1316 143.299 55.1548 140.533 73.7924 113.239C85.052 96.7592 88.6166 88.282 90.4837 79.5001C94.0483 62.6925 88.4808 58.7757 92.2943 44.1579H92.2717Z" stroke="#1D1D1B" stroke-width="5" stroke-miterlimit="10"/>
<path d="M106.858 185.718C103.588 192.311 107.345 203.023 113.682 208.204C119.532 212.99 123.821 209.987 152.36 209.389C163.869 209.152 166.641 209.558 170.557 207.019C179.779 201.047 184.589 185.673 179.655 178.618C177.131 175.006 172.888 174.781 143.251 177.433C114.157 180.041 109.155 181.079 106.847 185.718H106.858Z" stroke="#1D1D1B" stroke-width="5" stroke-miterlimit="10"/>
</g>
<defs>
<clipPath id="clip0_107_10">
<rect width="287" height="269" fill="white"/>
</clipPath>
</defs>
</svg>
