<svg width="183" height="246" viewBox="0 0 183 246" fill="none" xmlns="http://www.w3.org/2000/svg">
<g clip-path="url(#clip0_107_8)">
<path d="M15.1129 101.328C14.4968 129.919 11.5097 153.736 9.62405 166.073C4.3592 200.446 -2.56724 220.43 7.43036 228.618C10.0161 230.735 18.7068 231.154 35.9949 231.91C54.3659 232.712 63.5887 233.085 65.6517 231.91C79.9713 223.759 70.2258 195.588 76.6388 144.122C79.0565 124.679 84.9655 92.4505 90.9211 92.5437C98.2676 92.6556 103.934 141.902 105.203 152.897C110.86 202.069 106.24 227.844 120.578 235.201C127.056 238.521 129.838 234.213 149.142 237.393C167.821 240.479 172.003 245.636 176.605 242.876C183.121 238.978 182.225 224.151 171.117 177.04C161.866 137.827 160.428 139.366 153.539 109.003C142.617 60.8845 137.156 36.8161 137.063 35.4825C136.148 22.9681 136.139 8.9429 127.178 3.65549C123.826 1.67853 121.53 2.28467 100.881 3.05867C88.4567 3.52493 82.249 3.75806 75.5466 3.65549C62.3938 3.44101 61.0403 2.41523 50.0625 2.58308C36.9471 2.77891 30.3847 2.87217 26.1187 5.85624C17.8387 11.6286 17.708 23.8819 17.3346 39.8747C16.8585 60.3623 15.5797 80.8312 15.1409 101.328H15.1129Z" stroke="#1D1D1B" stroke-width="5" stroke-miterlimit="10"/>
</g>
<defs>
<clipPath id="clip0_107_8">
<rect width="183" height="246" fill="white"/>
</clipPath>
</defs>
</svg>
