<svg width="289" height="242" viewBox="0 0 289 242" fill="none" xmlns="http://www.w3.org/2000/svg">
<g clip-path="url(#clip0_107_13)">
<path d="M67.0031 15.5423C55.6134 21.3907 46.7924 28.042 39.3316 33.6792C31.0175 39.9502 26.0324 44.5478 20.2446 49.9061C8.103 61.155 2.02795 66.8851 2.11244 71.863C2.22228 78.7087 8.76204 78.4214 16.4256 93.82C20.9966 103.007 23.109 109.092 23.109 109.092C25.4917 115.971 25.1706 117.366 26.928 118.634C32.8764 122.927 46.6065 114.18 54.5995 109.092C67.4425 100.911 69.3435 96.516 72.0473 97.5556C78.0632 99.8713 70.9151 122.538 68.9126 167.323C67.5945 196.818 70.3406 194.807 67.9579 212.183C66.3271 224.041 64.4345 229.492 67.9579 234.14C72.7317 240.428 81.7725 237.749 108.041 237.96C130.863 238.138 128.599 240.2 149.071 239.87C170.524 239.524 170.49 237.309 188.2 237.96C201.212 238.442 204.296 239.752 207.287 237.005C214.097 230.768 204.659 218.048 205.377 189.28C205.47 185.552 205.572 187.919 207.287 165.413C208.554 148.763 209.188 140.43 209.196 137.734C209.281 111.948 201.136 96.2371 204.423 94.7835C207.338 93.4989 215.356 105.069 216.826 107.19C225.301 119.411 224.211 125.462 229.23 127.237C233.944 128.902 236.2 124.026 254.992 113.875C261.32 110.453 265.773 108.466 274.079 103.379C281.768 98.6627 285.629 96.254 286.482 93.8369C288.941 86.8391 279.866 79.2412 264.531 62.3382C241.921 37.4063 245.292 35.8935 232.086 25.1094C230.168 23.5459 216.556 12.6265 195.821 5.06244C189.079 2.60306 170.059 2.19739 170.059 2.19739C170.059 2.19739 172.848 10.8771 171.014 19.3793C168.843 29.4112 158.408 34.7356 156.701 35.6061C145.565 41.2855 130.06 40.0432 122.346 31.7861C113.694 22.5232 113.762 5.06244 113.762 5.06244C113.762 5.06244 80.3276 8.72194 67.0031 15.5592V15.5423Z" stroke="#1D1D1B" stroke-width="5" stroke-miterlimit="10"/>
</g>
<defs>
<clipPath id="clip0_107_13">
<rect width="289" height="242" fill="white"/>
</clipPath>
</defs>
</svg>
