<svg width="1116" height="981" viewBox="0 0 1116 981" fill="none" xmlns="http://www.w3.org/2000/svg">
<path d="M529.456 9.85805C450.327 47.1838 370.961 84.8664 297.325 129.678C223.69 174.489 155.167 224.458 145.62 304.265C136.709 376.075 183.898 445.174 266.693 464.067C308.09 473.514 349.753 465.99 391.642 464.755C433.531 463.52 476.154 465.738 517.91 472.988L479.748 351.377C367.2 441.422 254.088 531.9 154.9 633.348C105.144 684.109 47.4754 739.72 16.0544 801.036C-19.7614 870.614 4.16145 956.871 99.0918 976.58C173.782 991.913 266.195 959.063 338.036 943.049C420.626 924.549 502.599 904.078 583.627 881.712C750.895 835.774 914.537 781.617 1075.26 721.493C1117.14 705.766 1125.99 652.691 1105.05 621.603C1079.72 584.286 1031.47 579.745 989.266 595.547C731.39 692.335 463.217 768.558 189.335 824.362C175.891 827.169 155.435 827.674 143.615 833.428C141.511 834.518 139.557 834.97 137.575 834.221C133.378 847.571 142.803 858.676 166.174 867.462C171.093 864.21 176.951 848.362 180.512 843.009C188.286 832.153 197.214 821.633 205.904 811.471C241.825 767.835 282.151 727.105 323.808 687.275C410.502 605.022 505.117 529.089 599.822 453.437C644.521 417.735 622.978 342.402 561.66 331.826C495.577 320.541 429.396 315.62 362.369 320.254C354.198 320.936 314.401 327.726 308.312 322.794C314.313 327.445 312.232 315.245 314.219 312.671C339.153 271.879 397.572 245.382 440.83 221.789C497.51 190.863 556.553 163.015 615.271 135.242C710.516 90.2628 624.613 -35.4023 529.368 9.57655L529.456 9.85805Z" fill="#E94734" fill-opacity="0.83"/>
</svg>
